<svg width="22" height="17" viewBox="0 0 22 17" fill="none" xmlns="http://www.w3.org/2000/svg">
<path d="M13.1364 16.0695C12.8539 15.7825 12.7183 15.4357 12.7296 15.0291C12.7419 14.6226 12.8892 14.2758 13.1717 13.9888L17.1621 9.93498H1.41252C1.01231 9.93498 0.676597 9.79722 0.405393 9.5217C0.135131 9.24714 0 8.90658 0 8.5C0 8.09342 0.135131 7.75238 0.405393 7.47686C0.676597 7.2023 1.01231 7.06502 1.41252 7.06502H17.1621L13.1364 2.97534C12.8539 2.68834 12.7127 2.34729 12.7127 1.9522C12.7127 1.55806 12.8539 1.21749 13.1364 0.930493C13.4189 0.643497 13.7546 0.5 14.1436 0.5C14.5315 0.5 14.8668 0.643497 15.1493 0.930493L21.6116 7.49552C21.7528 7.63901 21.8531 7.79447 21.9124 7.96188C21.9708 8.1293 22 8.30867 22 8.5C22 8.69133 21.9708 8.8707 21.9124 9.03812C21.8531 9.20553 21.7528 9.36098 21.6116 9.50448L15.114 16.1054C14.855 16.3685 14.5315 16.5 14.1436 16.5C13.7546 16.5 13.4189 16.3565 13.1364 16.0695Z" fill="white"/>
</svg>
