<svg width="40" height="45" viewBox="0 0 40 45" fill="none" xmlns="http://www.w3.org/2000/svg">
<path d="M5.57169 28.0985V30.9084H11.0946L3.16309 40.1612L4.86597 42.1478L12.7975 32.8949V39.3379H15.2061V28.0985H5.57169ZM36.8836 42.1478H27.2492V30.9084H36.8836V42.1478ZM29.6578 39.3379H34.475V33.7182H29.6578V39.3379ZM24.8406 28.0985H15.2061V16.8591H24.8406V28.0985ZM17.6147 25.2887H22.432V19.669H17.6147V25.2887Z" fill="white"/>
<path d="M29.6578 23.8837H27.2492V21.0738H29.6578C30.9354 21.0738 32.1607 20.4817 33.0641 19.4279C33.9675 18.374 34.475 16.9446 34.475 15.4541C34.475 13.9637 33.9675 12.5343 33.0641 11.4804C32.1607 10.4265 30.9354 9.83443 29.6578 9.83443H15.2061V7.02459H29.6578C31.5742 7.02459 33.4121 7.9127 34.7672 9.49354C36.1223 11.0744 36.8836 13.2185 36.8836 15.4541C36.8836 17.6898 36.1223 19.8339 34.7672 21.4147C33.4121 22.9956 31.5742 23.8837 29.6578 23.8837ZM12.7975 14.0492H3.16309V2.80981H12.7975V14.0492ZM5.57169 11.2394H10.3889V5.61966H5.57169V11.2394Z" fill="white"/>
</svg>
