<svg width="42" height="33" viewBox="0 0 42 33" fill="none" xmlns="http://www.w3.org/2000/svg">
<path d="M13.4062 23.4135L35.5312 1.04271C36.2187 0.347568 37.0938 0 38.1562 0C39.2188 0 40.0937 0.347568 40.7812 1.04271C41.4687 1.73785 41.8125 2.62257 41.8125 3.69687C41.8125 4.77118 41.4687 5.6559 40.7812 6.35104L16.0312 31.376C15.2812 32.1344 14.4062 32.5135 13.4062 32.5135C12.4062 32.5135 11.5312 32.1344 10.7812 31.376L1.03125 21.5177C0.343749 20.8226 0 19.9378 0 18.8635C0 17.7892 0.343749 16.9045 1.03125 16.2094C1.71875 15.5142 2.59375 15.1667 3.65625 15.1667C4.71875 15.1667 5.59375 15.5142 6.28125 16.2094L13.4062 23.4135Z" fill="#47A8D3"/>
</svg>
