<svg xmlns:xlink="http://www.w3.org/1999/xlink" xmlns="http://www.w3.org/2000/svg" width="43" height="45" viewBox="0 0 43 45" fill="none">
<path d="M5.375 28.0985V30.9084H11.5374L2.6875 40.1612L4.58756 42.1478L13.4375 32.8949V39.3379H16.125V28.0985H5.375ZM40.3125 42.1478H29.5625V30.9084H40.3125V42.1478ZM32.25 39.3379H37.625V33.7182H32.25V39.3379ZM26.875 28.0985H16.125V16.8591H26.875V28.0985ZM18.8125 25.2887H24.1875V19.669H18.8125V25.2887Z" fill="#54565A"/>
<path d="M32.25 23.8837H29.5625V21.0738H32.25C33.6755 21.0738 35.0427 20.4817 36.0507 19.4279C37.0587 18.374 37.625 16.9446 37.625 15.4541C37.625 13.9637 37.0587 12.5343 36.0507 11.4804C35.0427 10.4265 33.6755 9.83443 32.25 9.83443H16.125V7.02459H32.25C34.3883 7.02459 36.439 7.9127 37.951 9.49354C39.4631 11.0744 40.3125 13.2185 40.3125 15.4541C40.3125 17.6898 39.4631 19.8339 37.951 21.4147C36.439 22.9956 34.3883 23.8837 32.25 23.8837ZM13.4375 14.0492H2.6875V2.80981H13.4375V14.0492ZM5.375 11.2394H10.75V5.61966H5.375V11.2394Z" fill="#54565A"/>
</svg>