<svg xmlns:xlink="http://www.w3.org/1999/xlink" xmlns="http://www.w3.org/2000/svg" width="584" height="412" viewBox="0 0 584 412" fill="none">
<g clip-path="url(#clip0_157_547)">
<path d="M585 218.972C585 302.307 534.731 373.313 464.322 400.331C453.611 404.449 442.554 407.498 431.299 409.438C400.335 414.774 368.588 411.745 339.045 400.635C268.19 373.839 217.554 302.594 217.587 218.931C217.587 112.368 299.838 25.9436 401.294 25.9436C439.637 25.885 477.028 38.4894 508.183 61.9755C554.694 96.9897 585 154.261 585 218.972Z" fill="#E5E5E5"/>
<path d="M464.322 400.331C453.611 404.449 442.554 407.498 431.299 409.438C400.335 414.774 368.588 411.745 339.045 400.635L347.529 364.866L348.041 362.719L365.354 362.789L452.331 363.117L453.444 366.574L464.322 400.331Z" fill="#2F2E41"/>
<path d="M159.575 0H0V189.726H159.575V0Z" fill="#E6E6E6"/>
<path d="M156.45 4.01367H2.84521V185.713H156.45V4.01367Z" fill="white"/>
<path d="M79.7875 179.253C84.5428 179.253 88.3978 175.202 88.3978 170.205C88.3978 165.209 84.5428 161.158 79.7875 161.158C75.0322 161.158 71.1772 165.209 71.1772 170.205C71.1772 175.202 75.0322 179.253 79.7875 179.253Z" fill="#E6E6E6"/>
<path d="M78.333 68.3315H28.8787V73.6474H78.333V68.3315Z" fill="#E6E6E6"/>
<path d="M103.519 84.2607H28.8787V89.5766H103.519V84.2607Z" fill="#47A8D3"/>
<path d="M96.192 100.291H28.8787V105.606H96.192V100.291Z" fill="#E6E6E6"/>
<path d="M132.825 115.896H28.8787V121.212H132.825V115.896Z" fill="#47A8D3"/>
<path d="M114.673 130.759H29.9592V136.075H114.673V130.759Z" fill="#E6E6E6"/>
<path d="M226.91 308.723C227.517 309.378 228.074 310.082 228.575 310.828L306.572 308.823L315.671 291.353L342.559 302.335L329.31 334.908C328.24 337.54 326.386 339.735 324.027 341.166C321.668 342.596 318.931 343.184 316.228 342.841L228.104 331.655C226.026 334.42 223.195 336.455 219.989 337.488C216.783 338.522 213.353 338.505 210.157 337.441C206.96 336.376 204.147 334.314 202.093 331.529C200.038 328.744 198.84 325.368 198.656 321.849C198.473 318.331 199.313 314.837 201.065 311.833C202.817 308.828 205.398 306.456 208.465 305.03C211.532 303.605 214.939 303.194 218.234 303.853C221.528 304.512 224.553 306.21 226.907 308.719L226.91 308.723Z" fill="#9F616A"/>
<path d="M331.89 208.962L368.391 196.393L379.112 180.944L431.283 184.188L438.942 202.216L466.761 216.028L462.485 299.453L455.172 377.528C417.563 357.066 347.375 372.666 346.761 372.92L331.89 208.962Z" fill="#47A8D3"/>
<path d="M339.693 321.884L302.565 306.275L302.724 305.581C302.883 304.879 318.685 235.496 320.783 224.346C322.969 212.73 330.954 209.518 331.293 209.387L331.541 209.292L346.234 213.991L352.687 267.267L339.693 321.884Z" fill="#47A8D3"/>
<path d="M419.859 374.097C420.729 374.075 421.6 374.125 422.462 374.248L474.093 312.787L468.088 293.902L494.034 280.652L507.759 313.007C508.868 315.621 509.14 318.542 508.534 321.332C507.928 324.122 506.478 326.63 504.4 328.48L436.679 388.771C437.195 392.253 436.69 395.817 435.231 398.99C433.772 402.162 431.429 404.793 428.512 406.532C425.596 408.271 422.244 409.036 418.904 408.725C415.564 408.414 412.393 407.042 409.813 404.791C407.232 402.54 405.366 399.517 404.461 396.124C403.555 392.732 403.655 389.13 404.745 385.798C405.836 382.466 407.866 379.561 410.566 377.471C413.266 375.381 416.507 374.204 419.859 374.097V374.097Z" fill="#9F616A"/>
<path d="M469.972 318.77L448.434 265.537L456.835 228.458L465.886 216.443C466.549 216.145 467.263 215.995 467.984 216.002C468.705 216.009 469.417 216.173 470.074 216.484C473.414 217.895 476.254 222.222 478.523 229.343L498.708 289.754L469.972 318.77Z" fill="#47A8D3"/>
<path d="M358.229 161.219V121.086C358.207 114.024 359.509 107.026 362.06 100.493C364.612 93.9594 368.363 88.0179 373.099 83.0077C377.836 77.9974 383.466 74.0166 389.667 71.2924C395.868 68.5682 402.519 67.1541 409.24 67.1307C415.961 67.1073 422.621 68.4751 428.839 71.1561C435.057 73.837 440.711 77.7786 445.479 82.7557C450.248 87.7329 454.036 93.6481 456.629 100.164C459.221 106.679 460.567 113.668 460.59 120.73C460.59 120.849 460.59 120.967 460.59 121.086V161.219C460.588 163.134 459.863 164.97 458.574 166.324C457.285 167.679 455.537 168.44 453.715 168.442H365.104C363.281 168.44 361.534 167.679 360.245 166.324C358.956 164.97 358.231 163.134 358.229 161.219V161.219Z" fill="#2F2E41"/>
<path d="M398.892 167.507C419.616 167.507 436.415 149.855 436.415 128.08C436.415 106.305 419.616 88.6523 398.892 88.6523C378.168 88.6523 361.369 106.305 361.369 128.08C361.369 149.855 378.168 167.507 398.892 167.507Z" fill="#9F616A"/>
<path d="M346.121 124.297C346.133 113.018 350.403 102.205 357.993 94.2302C365.583 86.255 375.873 81.769 386.607 81.7563H394.247C404.98 81.769 415.271 86.2551 422.861 94.2302C430.451 102.205 434.72 113.018 434.732 124.297V125.099H418.588L413.082 108.897L411.981 125.099H403.638L400.861 116.926L400.304 125.099H346.121V124.297Z" fill="#2F2E41"/>
<path d="M395.2 172.956C394.442 171.878 393.989 170.596 393.894 169.259C393.799 167.923 394.065 166.585 394.661 165.4C402.756 149.222 414.09 119.327 399.046 100.891L397.967 99.5684H441.643V168.468L401.967 175.823C401.566 175.898 401.159 175.936 400.751 175.936C399.668 175.936 398.6 175.666 397.636 175.148C396.671 174.631 395.837 173.88 395.202 172.958L395.2 172.956Z" fill="#2F2E41"/>
<path d="M79.6487 14.7769C76.0274 14.7767 72.4873 15.9048 69.4761 18.0187C66.465 20.1325 64.118 23.1371 62.732 26.6525C61.346 30.1679 60.9832 34.0362 61.6895 37.7682C62.3958 41.5003 64.1395 44.9284 66.7001 47.6192C69.2606 50.31 72.5231 52.1425 76.0748 52.885C79.6265 53.6276 83.308 53.2468 86.6538 51.7908C89.9996 50.3348 92.8593 47.8691 94.8714 44.7053C96.8835 41.5416 97.9575 37.822 97.9577 34.0169V34.0159C97.9577 31.4894 97.4841 28.9876 96.564 26.6534C95.6438 24.3192 94.2951 22.1983 92.5949 20.4118C90.8946 18.6253 88.8762 17.2082 86.6547 16.2413C84.4332 15.2745 82.0523 14.7769 79.6478 14.7769H79.6487ZM79.6487 20.548C80.735 20.548 81.797 20.8865 82.7002 21.5206C83.6034 22.1548 84.3074 23.0561 84.7231 24.1107C85.1389 25.1652 85.2476 26.3256 85.0357 27.4451C84.8238 28.5646 84.3007 29.5929 83.5326 30.4001C82.7644 31.2072 81.7858 31.7568 80.7203 31.9795C79.6549 32.2022 78.5505 32.0879 77.5469 31.6511C76.5433 31.2143 75.6855 30.4746 75.0819 29.5256C74.4784 28.5765 74.1563 27.4607 74.1563 26.3193C74.1563 24.7886 74.7349 23.3207 75.765 22.2384C76.795 21.1561 78.192 20.5481 79.6487 20.548ZM79.6487 48.3331C77.4788 48.3227 75.344 47.7562 73.4296 46.6827C71.5152 45.6092 69.879 44.0611 68.6628 42.1728C68.751 38.325 75.9868 36.207 79.6487 36.207C83.3107 36.207 90.5465 38.325 90.6347 42.1728C89.4172 44.0597 87.7806 45.6067 85.8665 46.6801C83.9524 47.7534 81.8183 48.3208 79.6487 48.3331Z" fill="#47A8D3"/>
<path d="M79.8616 173.674C87.4047 159.149 105.475 149.951 120.256 158.242C126.91 161.973 132.199 168.573 133.878 176.375C135.826 185.437 131.721 194.078 127.483 201.692C125.183 205.824 122.662 209.873 120.758 214.232C118.787 218.746 117.378 223.963 118.862 228.873C120.198 233.297 123.548 236.515 127.217 238.88C131.266 241.391 135.572 243.412 140.054 244.904C149.281 248.129 159.012 249.452 168.715 248.801C173.538 248.456 178.32 247.644 183 246.374C187.978 245.041 192.864 243.35 197.851 242.046C206.176 239.873 215.67 238.792 223.565 243.157C231.235 247.399 234.667 256.271 235.729 264.902C237.689 280.839 231.675 297.377 220.817 308.538C215.608 313.892 209.052 318.316 201.912 320.126C195.682 321.705 187.683 321.604 182.725 316.71C177.193 311.249 178.494 302.491 182.888 296.729C188.497 289.377 197.998 287.611 206.477 287.432C216.122 287.229 225.758 288.738 235.398 287.799C240.103 287.415 244.72 286.245 249.075 284.333C252.903 282.564 256.395 280.081 259.382 277.004C265.333 270.929 269.346 262.836 271.342 254.421C273.745 244.302 273.221 233.667 271.356 223.502C270.362 218.261 269.081 213.084 267.522 207.997C266.877 205.851 263.651 206.769 264.301 208.93C270.046 228.072 273.249 250.205 262.149 267.977C257.556 275.514 250.4 280.926 242.14 283.111C232.533 285.62 222.453 284.38 212.686 284.007C203.4 283.652 193.202 284.035 185.242 289.718C178.711 294.379 174.144 303.246 176.118 311.616C178.021 319.688 185.404 323.783 192.788 324.413C200.535 325.077 208.159 322.344 214.665 318.072C228.2 309.185 237.199 293.556 239.083 276.985C240.064 268.351 239.065 259.051 235.339 251.214C233.375 246.971 230.319 243.392 226.517 240.883C222.726 238.441 218.347 237.239 213.949 236.814C203.958 235.847 194.359 239.451 184.88 242.209C180.039 243.684 175.076 244.68 170.057 245.182C165.186 245.606 160.287 245.522 155.432 244.931C150.614 244.334 145.866 243.227 141.26 241.627C136.747 240.16 132.425 238.108 128.396 235.516C124.842 233.127 121.768 229.707 121.593 225.045C121.403 219.991 123.829 215.263 126.136 211.002C130.693 202.584 136.323 194.35 137.511 184.496C138.552 175.876 135.251 167.38 129.551 161.231C126.694 158.111 123.255 155.643 119.448 153.984C115.642 152.325 111.55 151.509 107.43 151.589C98.9721 151.843 90.874 155.708 84.653 161.643C81.5676 164.589 78.9712 168.054 76.9707 171.897C75.9403 173.881 78.8234 175.654 79.8549 173.668L79.8616 173.674Z" fill="#3F3D56"/>
</g>
<defs>
<clipPath id="clip0_157_547">
<rect width="585" height="412" fill="white"/>
</clipPath>
</defs>
</svg>