<svg xmlns:xlink="http://www.w3.org/1999/xlink" xmlns="http://www.w3.org/2000/svg" width="35" height="29" viewBox="0 0 35 29" fill="none">
<path d="M17.2486 0.853027C10.7835 0.853027 5.14844 3.67748 2.21247 7.86291H6.19697L7.52329 5.83826H16.7033C16.8662 5.58222 17.1324 5.36833 17.4359 5.21395C17.9352 4.95991 18.5603 4.82608 19.2382 4.82608C19.9161 4.82608 20.5413 4.95991 21.0406 5.21395C21.5399 5.46793 21.9407 5.8824 21.9407 6.3825C21.9407 6.88261 21.5398 7.29702 21.0406 7.55106C20.5413 7.8051 19.9161 7.93893 19.2382 7.93893C18.5603 7.93893 17.9352 7.8051 17.4359 7.55106C17.1324 7.39668 16.866 7.18279 16.7032 6.92663H8.40449L7.79125 7.86285H11.9431V8.95128H1.52752C1.35534 9.25886 1.19784 9.5711 1.05531 9.88739H3.98478V10.9758H0.628967C0.311569 11.9256 0.120703 12.9164 0.0703125 13.9366H8.7764L10.1029 10.8997H13.2695V11.9881H11.1306L10.2794 13.9366H14.0503C14.2132 13.6805 14.4796 13.4666 14.783 13.3122C15.2823 13.0582 15.9075 12.9243 16.5854 12.9243C17.2633 12.9243 17.8884 13.0582 18.3877 13.3122C18.887 13.5662 19.2881 13.9807 19.2881 14.4808C19.2881 14.9809 18.887 15.3953 18.3877 15.6493C17.8884 15.9034 17.2633 16.0372 16.5854 16.0372C15.9075 16.0372 15.2823 15.9034 14.783 15.6493C14.4796 15.4949 14.2132 15.281 14.0503 15.0249H6.46477L8.40449 17.9858H14.5958V19.0741H7.52321L4.87042 15.0249H0.0703125C0.198191 17.6146 1.23421 20.0154 2.93283 22.0349H10.0712C10.234 21.7788 10.5006 21.5648 10.8041 21.4105C11.3034 21.1564 11.9284 21.0226 12.6062 21.0226C13.2841 21.0226 13.9093 21.1564 14.4086 21.4105C14.9079 21.6644 15.3089 22.0789 15.3089 22.579C15.3089 23.0791 14.9079 23.4935 14.4086 23.7476C13.9093 24.0016 13.2841 24.1354 12.6062 24.1354C11.9284 24.1354 11.3034 24.0016 10.8041 23.7476C10.5006 23.5932 10.2342 23.3793 10.0713 23.1233H9.29615L10.9983 25.0717H16.8081L18.1344 23.0471H21.2278V24.1354H19.0157L18.4023 25.0717H22.5541V26.1601H10.2352L7.58232 23.1233H3.94984C7.104 26.1692 11.8914 28.1086 17.2487 28.1086C24.5645 28.1086 30.8179 24.492 33.2993 19.379C32.9125 20.0143 32.446 20.5487 31.8798 20.9448C31.3084 21.3444 30.6073 21.6048 29.8493 21.6048C29.0911 21.6048 28.3901 21.3444 27.8186 20.9448C27.2472 20.545 26.7771 20.0047 26.3882 19.3615C25.6103 18.0751 25.1572 16.3656 25.1572 14.4808C25.1572 12.5959 25.6103 10.8863 26.3882 9.60008C26.7772 8.95685 27.2472 8.41647 27.8187 8.01675C28.3901 7.61709 29.0911 7.35676 29.8493 7.35676C30.6073 7.35676 31.3084 7.61709 31.8798 8.01675C32.446 8.41278 32.9125 8.94717 33.2993 9.58255C30.8179 4.46954 24.5645 0.853027 17.2486 0.853027ZM19.2382 5.91445C18.8173 5.91445 18.4475 6.00716 18.2268 6.11945C18.006 6.23181 17.9615 6.32354 17.9615 6.3825C17.9615 6.44146 18.006 6.5332 18.2268 6.64556C18.4476 6.75785 18.8173 6.85056 19.2382 6.85056C19.6592 6.85056 20.0289 6.75785 20.2496 6.64556C20.4704 6.5332 20.5147 6.44146 20.5147 6.3825C20.5147 6.32354 20.4704 6.23181 20.2496 6.11945C20.0289 6.00716 19.6592 5.91445 19.2382 5.91445ZM31.8388 10.9602C30.9199 10.9602 30.2465 11.4927 29.8287 12.1303C29.411 12.768 29.182 13.5841 29.182 14.4808C29.182 15.3775 29.411 16.1935 29.8288 16.8311C30.2465 17.4688 30.9198 18.0014 31.8388 18.0014C32.7577 18.0014 33.4312 17.4688 33.849 16.8311C34.2668 16.1935 34.4958 15.3775 34.4958 14.4808C34.4958 13.584 34.2668 12.768 33.849 12.1304C33.4312 11.4927 32.7577 10.9602 31.8388 10.9602V10.9602ZM32.2043 12.1791C32.3276 12.2697 32.4627 12.4071 32.5949 12.6089C32.8851 13.0518 33.094 13.7286 33.094 14.4808C33.094 15.2329 32.8851 15.9097 32.5948 16.3527C32.3047 16.7956 32.0001 16.9314 31.8388 16.9314C31.6775 16.9314 31.3729 16.7956 31.0827 16.3527C30.7925 15.9098 30.5838 15.2329 30.5838 14.4808C30.5838 14.4655 30.5844 14.4504 30.5846 14.4352C30.7706 14.5465 30.9772 14.6048 31.1871 14.6051C31.5329 14.6051 31.8645 14.4478 32.1091 14.1678C32.3536 13.8879 32.491 13.5082 32.491 13.1123C32.4908 12.773 32.3897 12.4439 32.2043 12.1791ZM16.5854 14.0126C16.1644 14.0126 15.7949 14.1054 15.5741 14.2177C15.3533 14.3301 15.3089 14.4218 15.3089 14.4808C15.3089 14.5397 15.3533 14.6315 15.5741 14.7438C15.7949 14.8561 16.1644 14.9488 16.5854 14.9488C17.0064 14.9488 17.3761 14.8561 17.5968 14.7438C17.8176 14.6315 17.8621 14.5397 17.8621 14.4808C17.8621 14.4218 17.8176 14.3301 17.5968 14.2177C17.3761 14.1054 17.0064 14.0127 16.5854 14.0127V14.0126ZM12.6062 22.111C12.1852 22.111 11.8157 22.2037 11.5949 22.316C11.3742 22.4283 11.3297 22.5201 11.3297 22.579C11.3297 22.638 11.3742 22.7297 11.5949 22.8421C11.8157 22.9544 12.1852 23.0471 12.6062 23.0471C13.0272 23.0471 13.3969 22.9544 13.6176 22.8421C13.8384 22.7297 13.8829 22.638 13.8829 22.579C13.8829 22.5201 13.8384 22.4283 13.6176 22.316C13.3969 22.2037 13.0272 22.111 12.6062 22.111Z" fill="#54565A"/>
</svg>