<svg xmlns:xlink="http://www.w3.org/1999/xlink" xmlns="http://www.w3.org/2000/svg" width="461" height="363" viewBox="0 0 461 363" fill="none">
<g clip-path="url(#clip0_137_277)">
<path d="M184.476 35.0141C178.859 45.0549 189.435 61.9731 178.776 65.4863L179.654 64.5751C186.088 56.3624 172.64 38.98 179.074 30.7674C180.074 29.5627 180.932 28.239 181.631 26.8241" fill="#2F2E41"/>
<path d="M237.076 182.321C237.26 181.316 237.229 180.281 236.987 179.29C236.744 178.299 236.295 177.375 235.67 176.583C235.046 175.792 234.263 175.152 233.374 174.708C232.486 174.265 231.515 174.029 230.53 174.018L216.646 132.16L208.961 142.325L223.64 181.436C223.731 183.155 224.427 184.781 225.595 186.003C226.763 187.226 228.323 187.962 229.979 188.071C231.635 188.18 233.272 187.655 234.58 186.595C235.888 185.535 236.776 184.014 237.076 182.321L237.076 182.321Z" fill="#FFB8B8"/>
<path d="M176.048 81.2608C176.048 81.2608 175.616 66.1089 188.673 74.7888C201.73 83.4687 230.158 164.778 230.158 164.778L216.011 172.721L183.895 98.3134L176.048 81.2608Z" fill="#47A8D3"/>
<path d="M214.569 340.953L208.049 343.844L194.2 319.123L203.823 314.856L214.569 340.953Z" fill="#FFB6B6"/>
<path d="M222.837 351.149L218.161 353.222L215.44 349.012L215.189 354.54L202.788 360.039C202.194 360.303 201.534 360.362 200.905 360.209C200.275 360.056 199.71 359.698 199.29 359.188C198.871 358.677 198.62 358.041 198.573 357.372C198.527 356.703 198.688 356.036 199.033 355.468L206.013 343.98L204.106 339.349L214.788 335.375L222.837 351.149Z" fill="#2F2E41"/>
<path d="M112.364 349.338L105.282 348.978L103.247 320.462L113.699 320.992L112.364 349.338Z" fill="#FFB6B6"/>
<path d="M115.502 362.26L110.423 362.002L109.751 356.981L107.195 361.839L93.7257 361.156C93.08 361.123 92.4614 360.877 91.96 360.453C91.4586 360.03 91.1008 359.451 90.9388 358.802C90.7768 358.153 90.819 357.466 91.0594 356.844C91.2998 356.221 91.7257 355.694 92.2749 355.341L103.394 348.177L103.631 343.147L114.912 344.422L115.502 362.26Z" fill="#2F2E41"/>
<path d="M321.019 344.794C321.488 344.812 321.951 344.68 322.345 344.415C322.739 344.151 323.046 343.767 323.223 343.316C323.4 342.864 323.439 342.368 323.334 341.893C323.23 341.418 322.988 340.988 322.64 340.66C322.58 340.423 322.537 340.252 322.477 340.015C322.915 338.827 323.685 337.803 324.687 337.072C325.69 336.342 326.88 335.939 328.105 335.915C329.33 335.891 330.534 336.247 331.562 336.937C332.591 337.628 333.397 338.621 333.878 339.791C336.652 346.354 340.226 353.141 338.546 360.417C349.848 334.935 345.636 303.418 328.39 281.892C323.654 279.245 319.791 274.498 318.746 268.951C321.085 269.748 323.974 267.751 322.198 265.219C321.429 264.252 320.653 263.293 319.884 262.327C328.652 252.449 339.347 267.731 329.718 281.04C332.946 285.159 335.75 289.616 338.085 294.339C337.509 289.305 338.094 284.201 339.79 279.447C341.513 275.015 344.785 271.264 347.66 267.419C351.157 262.734 358.46 264.807 358.991 270.703C355.735 271.85 355.355 276.75 359.098 277.383C358.22 288.371 351.401 298.528 341.926 303.436C345.535 313.637 347.008 324.518 346.246 335.356C347.81 322.684 360.873 319.483 369.977 314.362C370.556 313.969 371.233 313.759 371.925 313.758C372.617 313.757 373.294 313.965 373.874 314.356C374.454 314.748 374.911 315.306 375.191 315.963C375.47 316.62 375.56 317.347 375.448 318.055C374.19 318.6 372.987 319.274 371.857 320.066C371.328 320.443 370.924 320.981 370.701 321.605C370.477 322.23 370.446 322.911 370.61 323.555C370.774 324.199 371.126 324.774 371.618 325.203C372.11 325.631 372.717 325.89 373.357 325.946C368.853 337.838 357.001 345.91 344.754 345.987C343.625 351.306 341.967 356.489 339.807 361.452L321.629 361.632C321.562 361.423 321.501 361.207 321.441 360.998C323.124 361.091 324.812 360.97 326.468 360.637C321.966 355.212 318.498 352.456 321.018 344.794L321.019 344.794Z" fill="#F2F2F2"/>
<path d="M130.253 163.971C130.253 163.971 115.852 204.698 115.619 209.256C115.387 213.813 111.28 271.447 107.835 274.795C104.391 278.144 93.8602 330.061 102.054 334.122C110.248 338.183 136.099 331.456 136.099 331.456L145.092 270.129L148.147 223.146C148.147 223.146 157.447 333.784 174.316 333.458C191.185 333.133 211.74 326.467 211.74 326.467L188.13 259.464C188.13 259.464 188.464 180.141 182.991 164.142C177.518 148.143 130.253 163.971 130.253 163.971Z" fill="#2F2E41"/>
<path d="M172.985 59.0431L153.699 60.8763L150.592 70.7737C150.592 70.7737 134.452 79.9719 138.026 84.1508C141.6 88.3296 137.227 116.491 137.227 116.491L138.214 139.351C138.214 139.351 137.153 155.188 133.978 158.837C130.803 162.486 122.496 171.434 128.366 167.153C148.946 152.143 184.918 164.808 184.918 164.808L179.779 132.145C179.779 132.145 191.451 78.6683 186.845 74.1519C182.239 69.6356 177.892 69.0648 177.892 69.0648L172.985 59.0431Z" fill="#47A8D3"/>
<path d="M71.6446 162.65C72.6135 162.463 73.5311 162.057 74.3328 161.462C75.1344 160.867 75.8006 160.097 76.2843 159.206C76.7681 158.315 77.0576 157.324 77.1327 156.304C77.2077 155.285 77.0663 154.26 76.7185 153.303L109.247 124.665L97.3284 120.931L67.5545 149.34C66.044 150.053 64.8379 151.316 64.1649 152.89C63.4918 154.464 63.3985 156.239 63.9027 157.88C64.4068 159.521 65.4734 160.912 66.9003 161.791C68.3272 162.671 70.0152 162.976 71.6446 162.65Z" fill="#FFB8B8"/>
<path d="M154.255 87.74C154.255 87.74 160.664 74.1185 145.321 76.4453C129.978 78.7721 71.7939 140.706 71.7939 140.706L81.5311 153.992L140.335 99.9233L154.255 87.74Z" fill="#47A8D3"/>
<path d="M129.269 64.6349L68.4365 145.51C67.3841 146.913 66.9109 148.693 67.1205 150.458C67.3302 152.223 68.2055 153.83 69.5548 154.926C83.6817 190.521 125.946 216.917 175.663 240.875C177.015 241.968 178.73 242.46 180.432 242.242C182.133 242.025 183.681 241.116 184.737 239.714L245.57 158.84C246.624 157.437 247.097 155.657 246.888 153.891C246.678 152.126 245.802 150.519 244.452 149.423C202.729 124.975 166.869 96.6505 138.343 63.4744C136.991 62.3824 135.276 61.8913 133.575 62.1088C131.874 62.3264 130.326 63.2347 129.269 64.6349Z" fill="#E6E6E6"/>
<path d="M241.301 157L222.784 181.617C211.473 196.565 194.921 206.259 176.744 208.584C158.568 210.909 140.243 205.674 125.773 194.024L73.8807 151.99C73.1119 151.367 72.6127 150.453 72.4925 149.449C72.3722 148.445 72.6408 147.432 73.2394 146.633L132.022 68.4833C132.624 67.6867 133.506 67.1704 134.474 67.0476C135.442 66.9247 136.417 67.2054 137.186 67.828C163.436 103.003 198.574 130.377 240.665 151.647C241.432 152.27 241.93 153.183 242.049 154.187C242.169 155.19 241.899 156.202 241.301 157Z" fill="white"/>
<path d="M128.056 108.785L115.997 124.817C115.677 125.242 115.207 125.517 114.692 125.583C114.176 125.648 113.656 125.499 113.247 125.167C112.837 124.836 112.571 124.349 112.508 123.814C112.444 123.279 112.587 122.739 112.907 122.314L124.966 106.282C125.124 106.071 125.321 105.895 125.545 105.763C125.769 105.631 126.016 105.546 126.271 105.513C126.527 105.481 126.786 105.5 127.034 105.572C127.283 105.643 127.515 105.764 127.718 105.929C127.921 106.093 128.091 106.297 128.217 106.53C128.344 106.763 128.426 107.019 128.457 107.284C128.489 107.549 128.469 107.818 128.4 108.076C128.331 108.333 128.214 108.574 128.056 108.785H128.056Z" fill="#CCCCCC"/>
<path d="M150.675 96.8925L124.192 132.101C124.034 132.311 123.837 132.487 123.613 132.619C123.389 132.75 123.142 132.835 122.887 132.868C122.632 132.9 122.372 132.881 122.124 132.809C121.876 132.738 121.644 132.617 121.441 132.452C121.238 132.288 121.069 132.084 120.942 131.851C120.815 131.619 120.734 131.363 120.702 131.098C120.671 130.833 120.69 130.564 120.758 130.307C120.827 130.049 120.944 129.808 121.102 129.598L147.585 94.3897C147.743 94.1787 147.94 94.0021 148.164 93.87C148.388 93.7379 148.635 93.653 148.891 93.6201C149.147 93.5872 149.406 93.6069 149.654 93.6781C149.903 93.7493 150.135 93.8707 150.338 94.0352C150.541 94.1997 150.711 94.4042 150.838 94.6369C150.965 94.8696 151.046 95.126 151.078 95.3914C151.109 95.6567 151.089 95.9259 151.02 96.1835C150.951 96.4411 150.834 96.682 150.675 96.8925H150.675Z" fill="#CCCCCC"/>
<path d="M105.508 155.619C112.637 155.619 118.416 149.622 118.416 142.223C118.416 134.825 112.637 128.828 105.508 128.828C98.3783 128.828 92.5989 134.825 92.5989 142.223C92.5989 149.622 98.3783 155.619 105.508 155.619Z" fill="#47A8D3"/>
<path d="M152.081 124.719L119.555 167.961C119.215 168.32 118.761 168.536 118.277 168.57C117.794 168.603 117.316 168.45 116.934 168.141C116.552 167.831 116.293 167.387 116.206 166.892C116.12 166.398 116.212 165.887 116.465 165.458L148.991 122.216C149.331 121.857 149.786 121.641 150.269 121.608C150.752 121.574 151.231 121.727 151.612 122.036C151.994 122.346 152.253 122.79 152.34 123.285C152.426 123.779 152.334 124.29 152.081 124.719Z" fill="#CCCCCC"/>
<path d="M173.182 114.846L127.783 175.202C127.443 175.56 126.989 175.777 126.505 175.81C126.022 175.843 125.544 175.69 125.162 175.381C124.78 175.072 124.521 174.627 124.434 174.133C124.348 173.638 124.44 173.128 124.693 172.699L170.092 112.343C170.431 111.984 170.886 111.768 171.37 111.735C171.853 111.701 172.331 111.854 172.713 112.163C173.095 112.473 173.354 112.917 173.44 113.412C173.527 113.907 173.435 114.417 173.182 114.846Z" fill="#CCCCCC"/>
<path d="M173.024 141.683L140.498 184.925C140.158 185.284 139.704 185.501 139.22 185.534C138.737 185.567 138.259 185.414 137.877 185.105C137.495 184.795 137.236 184.351 137.149 183.856C137.063 183.362 137.155 182.851 137.408 182.422L169.934 139.18C170.274 138.821 170.729 138.605 171.212 138.572C171.695 138.538 172.174 138.691 172.555 139.001C172.937 139.31 173.196 139.754 173.283 140.249C173.369 140.744 173.277 141.254 173.024 141.683Z" fill="#CCCCCC"/>
<path d="M216.062 147.015L183.536 190.258C183.196 190.617 182.741 190.833 182.258 190.866C181.775 190.899 181.296 190.747 180.914 190.437C180.533 190.128 180.274 189.684 180.187 189.189C180.101 188.694 180.193 188.184 180.446 187.755L212.972 144.513C213.312 144.154 213.766 143.937 214.25 143.904C214.733 143.871 215.211 144.024 215.593 144.333C215.975 144.643 216.234 145.087 216.32 145.582C216.407 146.076 216.315 146.587 216.062 147.015Z" fill="#47A8D3"/>
<path d="M194.125 131.81L148.726 192.166C148.387 192.524 147.932 192.741 147.448 192.774C146.965 192.807 146.487 192.654 146.105 192.345C145.723 192.036 145.464 191.591 145.378 191.097C145.291 190.602 145.383 190.092 145.636 189.663L191.035 129.307C191.374 128.948 191.829 128.732 192.313 128.699C192.796 128.665 193.274 128.818 193.656 129.127C194.038 129.437 194.297 129.881 194.383 130.376C194.47 130.87 194.378 131.381 194.125 131.81Z" fill="#CCCCCC"/>
<path d="M140.651 33.4919C140.65 36.7459 141.419 39.9505 142.89 42.8244C144.361 45.6982 146.489 48.1534 149.088 49.9745C151.686 51.7955 154.676 52.9267 157.794 53.2687C160.913 53.6108 164.065 53.1532 166.973 51.9362C169.881 50.7192 172.457 48.78 174.474 46.2888C176.492 43.7976 177.889 40.8305 178.543 37.6481C179.198 34.4657 179.089 31.1653 178.228 28.0365C177.366 24.9077 175.777 22.0462 173.601 19.7033L173.509 19.608C173.356 19.4409 173.203 19.274 173.042 19.1149C173.041 19.1149 173.04 19.1147 173.039 19.1143C173.038 19.1139 173.037 19.1133 173.036 19.1126C173.036 19.1119 173.035 19.111 173.035 19.11C173.034 19.109 173.034 19.108 173.034 19.1069C172.835 18.9161 172.636 18.7253 172.429 18.5424C169.661 16.0239 166.252 14.3867 162.61 13.8269C158.968 13.267 155.248 13.8081 151.895 15.3855C148.542 16.9628 145.699 19.5096 143.705 22.7208C141.71 25.932 140.65 29.6716 140.651 33.4919V33.4919Z" fill="#2F2E41"/>
<path d="M164.528 54.7614C173.4 54.7614 180.592 47.298 180.592 38.0915C180.592 28.8849 173.4 21.4216 164.528 21.4216C155.656 21.4216 148.464 28.8849 148.464 38.0915C148.464 47.298 155.656 54.7614 164.528 54.7614Z" fill="#FFB8B8"/>
<path d="M147.403 42.5339C145.833 35.191 148.102 26.9644 153.05 22.0623C155.539 19.6455 158.634 18.0063 161.981 17.3333C165.327 16.6602 168.788 16.9805 171.967 18.2574C172.371 18.4267 172.775 18.6119 173.171 18.8052L173.356 18.8954V18.9234C173.391 18.9491 173.427 18.9761 173.463 19.0034C173.538 19.0763 173.629 19.1285 173.728 19.1554C175.123 19.1176 176.51 19.386 177.798 19.9431C179.085 20.5002 180.245 21.3334 181.201 22.3881C183.691 25.1915 184.863 29.7219 184.504 35.1448L184.493 35.3144L184.353 35.4045C182.469 36.6441 180.513 37.7632 178.496 38.7557C171.444 42.1967 165.006 42.8343 158.818 40.7024L158.705 40.6634L156.108 36.1466C155.575 39.2618 155.86 49.5948 152.8 50.1547L147.469 42.8454L147.403 42.5339Z" fill="#2F2E41"/>
<path d="M113.587 57.0483C119.054 54.1203 112.023 43.4936 113.436 37.2804C114.849 31.0672 125.022 29.0689 125.67 22.7206C126.318 16.3723 127.843 9.82475 131.88 5.00764C134.459 1.92951 138.26 -0.342875 142.173 0.0426808C143.498 0.173128 144.779 0.598177 145.93 1.28887C147.082 1.97957 148.077 2.91971 148.846 4.04522C149.616 5.17073 150.143 6.45519 150.391 7.81112C150.64 9.16705 150.604 10.5626 150.285 11.9027C151.4 10.2644 154.283 10.6195 154.997 12.483C155.631 14.1397 154.229 16.1463 152.58 16.2929C150.421 19.0593 147.949 21.9951 144.568 22.5531C144.029 22.6815 143.469 22.6812 142.93 22.5522C142.391 22.4232 141.888 22.1688 141.458 21.8083C140.662 21.0155 140.601 19.4304 141.544 18.8379C137.294 20.5897 134.803 25.3581 134.172 30.0583C133.542 34.7584 134.414 39.514 134.989 44.2218C135.564 48.9297 135.811 53.8821 134.033 58.2539C131.931 63.4192 127.092 67.1212 121.812 68.3085C116.531 69.4957 110.907 68.3354 106.128 65.7211C101.348 63.1067 97.3618 59.1156 94.1057 54.6412C99.7146 58.7742 107.474 60.3225 113.587 57.0483Z" fill="#2F2E41"/>
<path d="M156.854 37.0139C151.238 47.0547 161.814 63.9729 151.155 67.486L152.033 66.5748C158.467 58.3622 145.019 40.9798 151.453 32.7671C152.453 31.5624 153.311 30.2387 154.009 28.8239" fill="#2F2E41"/>
<path d="M148.153 42.382C148.153 42.382 152.912 23.9497 173.31 19.6954C173.333 19.6875 173.41 19.6557 173.509 19.608C173.57 19.5682 173.647 19.5284 173.724 19.4887C173.494 19.3535 173.272 19.2343 173.042 19.1149C173.041 19.1149 173.04 19.1147 173.039 19.1143C173.038 19.1139 173.037 19.1133 173.036 19.1126C173.036 19.1118 173.035 19.1109 173.035 19.11C173.034 19.109 173.034 19.108 173.034 19.1069C172.835 18.9161 172.636 18.7252 172.429 18.5424L171.846 18.5662C171.846 18.5662 151.379 15.2027 148.153 42.382Z" fill="#FD6584"/>
<path d="M3.40226e-06 362.207C-0.000296833 362.311 0.0192767 362.414 0.0575877 362.511C0.0958987 362.607 0.152199 362.695 0.223244 362.768C0.29429 362.842 0.378676 362.9 0.471558 362.94C0.564439 362.98 0.663978 363 0.764448 363H460.236C460.438 363 460.633 362.916 460.776 362.768C460.92 362.619 461 362.417 461 362.207C461 361.996 460.92 361.795 460.776 361.646C460.633 361.497 460.438 361.413 460.236 361.413H0.764409C0.663943 361.413 0.564413 361.433 0.471538 361.473C0.378663 361.513 0.294275 361.571 0.223234 361.645C0.152194 361.719 0.0958978 361.806 0.0575877 361.903C0.0192776 361.999 -0.000292546 362.102 3.40226e-06 362.207Z" fill="#CCCCCC"/>
</g>
<defs>
<clipPath id="clip0_137_277">
<rect width="461" height="363" fill="white"/>
</clipPath>
</defs>
</svg>