<svg width="38" height="33" viewBox="0 0 38 33" fill="none" xmlns="http://www.w3.org/2000/svg">
<path d="M23.0787 11.5391C23.7609 11.5388 24.425 11.7392 24.9721 12.1104C25.5193 12.4817 25.9201 13.0041 26.115 13.5997H24.881C24.139 13.5997 23.437 13.748 22.8054 14.0118H13.1227C13.0027 14.0118 12.8876 14.0552 12.8028 14.1325C12.7179 14.2098 12.6703 14.3146 12.6703 14.4239V22.2523C12.6703 24.4052 14.1794 26.2366 16.2857 26.9174V29.4874C14.4874 29.1123 12.882 28.1923 11.7322 26.8781C10.5824 25.5638 9.95617 23.933 9.956 22.2523V14.4239C9.956 12.8315 11.3729 11.5391 13.1227 11.5391H23.0787ZM31.2143 13.5997C32.5303 13.5996 33.7927 14.0745 34.7253 14.9204C35.6579 15.7663 36.1847 16.9142 36.1905 18.1131V14.4239C36.1905 13.6588 35.8568 12.925 35.263 12.384C34.6691 11.843 33.8637 11.5391 33.0238 11.5391H26.9167C27.445 12.121 27.816 12.8249 27.9734 13.5997H31.2143ZM3.16667 11.5391H9.28467C8.64626 12.2415 8.25638 13.1036 8.16638 14.0118H3.16667C3.04669 14.0118 2.93162 14.0552 2.84679 14.1325C2.76195 14.2098 2.71429 14.3146 2.71429 14.4239V19.7797C2.71417 20.4026 2.86901 21.0174 3.16716 21.578C3.46531 22.1386 3.89904 22.6304 4.43574 23.0163C4.97245 23.4023 5.59819 23.6725 6.26596 23.8065C6.93372 23.9406 7.62616 23.935 8.29124 23.7903C8.44505 24.6212 8.72552 25.4141 9.11095 26.1509C8.03841 26.4123 6.91425 26.4455 5.82539 26.2479C4.73653 26.0502 3.71215 25.6272 2.83145 25.0113C1.95075 24.3954 1.23733 23.6033 0.746362 22.6961C0.255392 21.789 2.22567e-05 20.7911 0 19.7797V14.4239C0 12.8315 1.41867 11.5391 3.16667 11.5391ZM18.0952 0C19.535 0 20.9158 0.521025 21.9338 1.44845C22.9519 2.37588 23.5238 3.63375 23.5238 4.94533C23.5238 6.25691 22.9519 7.51478 21.9338 8.44221C20.9158 9.36964 19.535 9.89066 18.0952 9.89066C16.6555 9.89066 15.2747 9.36964 14.2567 8.44221C13.2386 7.51478 12.6667 6.25691 12.6667 4.94533C12.6667 3.63375 13.2386 2.37588 14.2567 1.44845C15.2747 0.521025 16.6555 0 18.0952 0ZM18.0952 2.47267C17.3754 2.47267 16.685 2.73318 16.1759 3.19689C15.6669 3.66061 15.381 4.28954 15.381 4.94533C15.381 5.60112 15.6669 6.23005 16.1759 6.69377C16.685 7.15748 17.3754 7.418 18.0952 7.418C18.8151 7.418 19.5055 7.15748 20.0145 6.69377C20.5236 6.23005 20.8095 5.60112 20.8095 4.94533C20.8095 4.28954 20.5236 3.66061 20.0145 3.19689C19.5055 2.73318 18.8151 2.47267 18.0952 2.47267ZM29.8571 1.64844C31.0569 1.64844 32.2076 2.08263 33.056 2.85549C33.9043 3.62835 34.381 4.67657 34.381 5.76955C34.381 6.86254 33.9043 7.91076 33.056 8.68362C32.2076 9.45647 31.0569 9.89066 29.8571 9.89066C28.6574 9.89066 27.5067 9.45647 26.6583 8.68362C25.8099 7.91076 25.3333 6.86254 25.3333 5.76955C25.3333 4.67657 25.8099 3.62835 26.6583 2.85549C27.5067 2.08263 28.6574 1.64844 29.8571 1.64844ZM29.8571 4.12111C29.3772 4.12111 28.917 4.29478 28.5776 4.60393C28.2383 4.91307 28.0476 5.33236 28.0476 5.76955C28.0476 6.20675 28.2383 6.62603 28.5776 6.93518C28.917 7.24432 29.3772 7.418 29.8571 7.418C30.3371 7.418 30.7973 7.24432 31.1367 6.93518C31.476 6.62603 31.6667 6.20675 31.6667 5.76955C31.6667 5.33236 31.476 4.91307 31.1367 4.60393C30.7973 4.29478 30.3371 4.12111 29.8571 4.12111ZM6.33333 1.64844C7.53312 1.64844 8.68377 2.08263 9.53215 2.85549C10.3805 3.62835 10.8571 4.67657 10.8571 5.76955C10.8571 6.86254 10.3805 7.91076 9.53215 8.68362C8.68377 9.45647 7.53312 9.89066 6.33333 9.89066C5.13354 9.89066 3.9829 9.45647 3.13452 8.68362C2.28614 7.91076 1.80952 6.86254 1.80952 5.76955C1.80952 4.67657 2.28614 3.62835 3.13452 2.85549C3.9829 2.08263 5.13354 1.64844 6.33333 1.64844ZM6.33333 4.12111C5.85342 4.12111 5.39316 4.29478 5.05381 4.60393C4.71446 4.91307 4.52381 5.33236 4.52381 5.76955C4.52381 6.20675 4.71446 6.62603 5.05381 6.93518C5.39316 7.24432 5.85342 7.418 6.33333 7.418C6.81325 7.418 7.27351 7.24432 7.61286 6.93518C7.95221 6.62603 8.14286 6.20675 8.14286 5.76955C8.14286 5.33236 7.95221 4.91307 7.61286 4.60393C7.27351 4.29478 6.81325 4.12111 6.33333 4.12111ZM21.7143 19.7813H20.8095C20.0897 19.7813 19.3993 20.0418 18.8902 20.5056C18.3812 20.9693 18.0952 21.5982 18.0952 22.254V24.7267H22.619V24.3145C22.619 23.9866 22.762 23.6722 23.0165 23.4403C23.2711 23.2085 23.6163 23.0782 23.9762 23.0782C24.3361 23.0782 24.6813 23.2085 24.9358 23.4403C25.1903 23.6722 25.3333 23.9866 25.3333 24.3145V24.7267H30.7619V24.3145C30.7619 23.9866 30.9049 23.6722 31.1594 23.4403C31.4139 23.2085 31.7591 23.0782 32.119 23.0782C32.479 23.0782 32.8242 23.2085 33.0787 23.4403C33.3332 23.6722 33.4762 23.9866 33.4762 24.3145V24.7267H38V22.254C38 21.5982 37.714 20.9693 37.205 20.5056C36.696 20.0418 36.0056 19.7813 35.2857 19.7813H34.381V18.1329C34.381 17.3678 34.0473 16.634 33.4535 16.093C32.8596 15.552 32.0541 15.2481 31.2143 15.2481H24.881C24.0411 15.2481 23.2356 15.552 22.6418 16.093C22.0479 16.634 21.7143 17.3678 21.7143 18.1329V19.7813ZM24.4286 18.1329C24.4286 18.0236 24.4762 17.9188 24.5611 17.8415C24.6459 17.7642 24.761 17.7208 24.881 17.7208H31.2143C31.3343 17.7208 31.4493 17.7642 31.5342 17.8415C31.619 17.9188 31.6667 18.0236 31.6667 18.1329V19.7813H24.4286V18.1329ZM18.0952 30.4962V27.1993H22.619V28.4357C22.619 28.7635 22.762 29.078 23.0165 29.3099C23.2711 29.5417 23.6163 29.672 23.9762 29.672C24.3361 29.672 24.6813 29.5417 24.9358 29.3099C25.1903 29.078 25.3333 28.7635 25.3333 28.4357V27.1993H30.7619V28.4357C30.7619 28.7635 30.9049 29.078 31.1594 29.3099C31.4139 29.5417 31.7591 29.672 32.119 29.672C32.479 29.672 32.8242 29.5417 33.0787 29.3099C33.3332 29.078 33.4762 28.7635 33.4762 28.4357V27.1993H38V30.4962C38 31.152 37.714 31.7809 37.205 32.2446C36.696 32.7084 36.0056 32.9689 35.2857 32.9689H20.8095C20.0897 32.9689 19.3993 32.7084 18.8902 32.2446C18.3812 31.7809 18.0952 31.152 18.0952 30.4962Z" fill="white"/>
</svg>
