<svg width="37" height="32" viewBox="0 0 37 32" fill="none" xmlns="http://www.w3.org/2000/svg">
<path d="M17.5 29.0625C12.8875 29.0625 8.40313 26.925 5.7125 23.125H12.375V20.75H2.125V30.25H4.6875V25.8562C7.89062 29.4187 12.5031 31.4375 17.5 31.4375V29.0625ZM36.7188 24.3125V21.9375H34.0281C33.9 21.225 33.5156 20.5125 33.1313 19.8L35.0531 18.0188L33.2594 16.3562L31.3375 18.1375C30.6969 17.7812 29.9281 17.425 29.0312 17.3062V14.8125H26.4688V17.3062C25.7 17.425 24.9313 17.7812 24.1625 18.1375L22.2406 16.3562L20.4469 18.0188L22.3687 19.8C21.9844 20.3938 21.6 21.1063 21.4719 21.9375H18.7812V24.3125H21.4719C21.6 25.025 21.9844 25.7375 22.3687 26.45L20.4469 28.2312L22.2406 29.8938L24.1625 28.1125C24.8031 28.4688 25.5719 28.825 26.4688 28.9438V31.4375H29.0312V28.9438C29.8 28.825 30.5687 28.4688 31.3375 28.1125L33.2594 29.8938L35.0531 28.2312L33.1313 26.45C33.5156 25.8562 33.9 25.1437 34.0281 24.3125H36.7188ZM27.75 26.6875C25.5719 26.6875 23.9062 25.1437 23.9062 23.125C23.9062 21.1063 25.5719 19.5625 27.75 19.5625C29.9281 19.5625 31.5938 21.1063 31.5938 23.125C31.5938 25.1437 29.9281 26.6875 27.75 26.6875ZM22.625 8.875H29.2875C25.0594 2.81875 16.3469 1.15625 9.8125 5.075C5.84063 7.45 3.40625 11.6062 3.40625 16H0.84375C0.84375 7.45 8.275 0.5625 17.5 0.5625C22.4969 0.5625 27.1094 2.58125 30.3125 6.14375V1.75H32.875V11.25H22.625V8.875Z" fill="#54565A"/>
</svg>
