<svg width="33" height="32" viewBox="0 0 33 32" fill="none" xmlns="http://www.w3.org/2000/svg">
<path d="M15.4728 29.0625C11.3165 29.0625 7.27561 26.925 4.85109 23.125H10.8547V20.75H1.6184V30.25H3.92746V25.8562C6.81379 29.4187 10.9701 31.4375 15.4728 31.4375V29.0625ZM32.7908 24.3125V21.9375H30.3663C30.2508 21.225 29.9044 20.5125 29.5581 19.8L31.2899 18.0188L29.6735 16.3562L27.9417 18.1375C27.3645 17.7812 26.6717 17.425 25.8636 17.3062V14.8125H23.5545V17.3062C22.8618 17.425 22.1691 17.7812 21.4764 18.1375L19.7446 16.3562L18.1282 18.0188L19.86 19.8C19.5136 20.3938 19.1673 21.1063 19.0518 21.9375H16.6273V24.3125H19.0518C19.1673 25.025 19.5136 25.7375 19.86 26.45L18.1282 28.2312L19.7446 29.8938L21.4764 28.1125C22.0536 28.4688 22.7463 28.825 23.5545 28.9438V31.4375H25.8636V28.9438C26.5563 28.825 27.249 28.4688 27.9417 28.1125L29.6735 29.8938L31.2899 28.2312L29.5581 26.45C29.9044 25.8562 30.2508 25.1437 30.3663 24.3125H32.7908ZM24.709 26.6875C22.7463 26.6875 21.2454 25.1437 21.2454 23.125C21.2454 21.1063 22.7463 19.5625 24.709 19.5625C26.6717 19.5625 28.1726 21.1063 28.1726 23.125C28.1726 25.1437 26.6717 26.6875 24.709 26.6875ZM20.0909 8.875H26.0945C22.2845 2.81875 14.4337 1.15625 8.54559 5.075C4.96654 7.45 2.77293 11.6062 2.77293 16H0.463867C0.463867 7.45 7.16015 0.5625 15.4728 0.5625C19.9755 0.5625 24.1318 2.58125 27.0181 6.14375V1.75H29.3272V11.25H20.0909V8.875Z" fill="white"/>
</svg>
