<svg width="23" height="26" viewBox="0 0 23 26" fill="none" xmlns="http://www.w3.org/2000/svg">
<path d="M11.1713 0C6.96697 0 3.30238 2.66481 1.39307 6.61367H3.98425L4.84678 4.70346H10.8167C10.9226 4.46189 11.0957 4.26009 11.2931 4.11443C11.6178 3.87475 12.0243 3.74849 12.4652 3.74849C12.906 3.74849 13.3125 3.87475 13.6373 4.11443C13.962 4.35406 14.2226 4.74511 14.2226 5.21694C14.2226 5.68878 13.9619 6.07977 13.6373 6.31945C13.3125 6.55913 12.906 6.68539 12.4652 6.68539C12.0243 6.68539 11.6178 6.55913 11.2931 6.31945C11.0957 6.17379 10.9225 5.97199 10.8166 5.73031H5.41984L5.02103 6.61362H7.72103V7.64053H0.947643C0.835674 7.93072 0.733245 8.22531 0.640556 8.52372H2.54563V9.55057H0.363301C0.156893 10.4467 0.0327697 11.3815 0 12.3441H5.66169L6.52432 9.47886H8.58361V10.5057H7.19265L6.63912 12.3441H9.09138C9.19732 12.1025 9.37055 11.9006 9.56789 11.755C9.8926 11.5153 10.2992 11.389 10.74 11.389C11.1808 11.389 11.5873 11.5153 11.9121 11.755C12.2368 11.9946 12.4976 12.3856 12.4976 12.8575C12.4976 13.3293 12.2368 13.7203 11.9121 13.96C11.5873 14.1997 11.1808 14.3259 10.74 14.3259C10.2992 14.3259 9.8926 14.1997 9.56789 13.96C9.37055 13.8143 9.19732 13.6125 9.09138 13.3708H4.15841L5.41984 16.1644H9.44613V17.1912H4.84673L3.12157 13.3708H0C0.0831609 15.8142 0.756898 18.0793 1.86154 19.9846H6.50371C6.60959 19.743 6.78297 19.5411 6.98031 19.3955C7.30502 19.1558 7.71145 19.0295 8.1523 19.0295C8.59309 19.0295 8.99967 19.1558 9.32438 19.3955C9.64909 19.6351 9.90986 20.0262 9.90986 20.498C9.90986 20.9698 9.64909 21.3608 9.32438 21.6005C8.99967 21.8402 8.59309 21.9664 8.1523 21.9664C7.71145 21.9664 7.30502 21.8402 6.98031 21.6005C6.78297 21.4548 6.6097 21.253 6.50381 21.0115H5.99969L7.1066 22.8498H10.8848L11.7473 20.9396H13.759V21.9664H12.3204L11.9215 22.8498H14.6215V23.8767H6.61037L4.88516 21.0115H2.52291C4.57411 23.8853 7.68744 25.715 11.1713 25.715C15.9289 25.715 19.9956 22.3028 21.6093 17.4788C21.3577 18.0783 21.0543 18.5825 20.6861 18.9561C20.3146 19.3332 19.8587 19.5788 19.3657 19.5788C18.8726 19.5788 18.4167 19.3332 18.0451 18.9561C17.6735 18.579 17.3678 18.0692 17.1149 17.4623C16.609 16.2487 16.3143 14.6358 16.3143 12.8575C16.3143 11.0792 16.609 9.46619 17.1149 8.25266C17.3679 7.64578 17.6735 7.13594 18.0451 6.75882C18.4167 6.38175 18.8726 6.13613 19.3657 6.13613C19.8587 6.13613 20.3146 6.38175 20.6861 6.75882C21.0543 7.13246 21.3577 7.63665 21.6093 8.23611C19.9956 3.4121 15.9289 0 11.1713 0ZM12.4652 4.77534C12.1914 4.77534 11.951 4.86281 11.8074 4.96876C11.6639 5.07476 11.6349 5.16131 11.6349 5.21694C11.6349 5.27257 11.6639 5.35912 11.8074 5.46512C11.951 5.57107 12.1914 5.65854 12.4652 5.65854C12.7389 5.65854 12.9793 5.57107 13.1229 5.46512C13.2665 5.35912 13.2953 5.27257 13.2953 5.21694C13.2953 5.16131 13.2664 5.07476 13.1229 4.96876C12.9793 4.86281 12.7389 4.77534 12.4652 4.77534ZM20.6595 9.53591C20.0619 9.53591 19.624 10.0383 19.3523 10.6399C19.0807 11.2415 18.9317 12.0115 18.9317 12.8575C18.9317 13.7035 19.0807 14.4734 19.3524 15.075C19.624 15.6766 20.0619 16.1791 20.6595 16.1791C21.2571 16.1791 21.6951 15.6766 21.9667 15.075C22.2384 14.4734 22.3874 13.7035 22.3874 12.8575C22.3874 12.0114 22.2384 11.2415 21.9667 10.64C21.6951 10.0383 21.2571 9.53586 20.6595 9.53586V9.53591ZM20.8972 10.6859C20.9774 10.7714 21.0652 10.901 21.1512 11.0914C21.3399 11.5092 21.4758 12.1478 21.4758 12.8575C21.4758 13.5671 21.3399 14.2056 21.1512 14.6236C20.9625 15.0414 20.7644 15.1696 20.6595 15.1696C20.5546 15.1696 20.3565 15.0414 20.1678 14.6236C19.9791 14.2057 19.8434 13.5671 19.8434 12.8575C19.8434 12.843 19.8438 12.8288 19.8439 12.8145C19.9648 12.9195 20.0992 12.9745 20.2357 12.9748C20.4606 12.9747 20.6762 12.8264 20.8352 12.5622C20.9943 12.2981 21.0836 11.9399 21.0836 11.5664C21.0835 11.2463 21.0178 10.9357 20.8972 10.6859ZM10.74 12.4158C10.4662 12.4158 10.2259 12.5033 10.0824 12.6093C9.93876 12.7153 9.90986 12.8018 9.90986 12.8575C9.90986 12.9131 9.93876 12.9996 10.0824 13.1057C10.2259 13.2116 10.4662 13.2991 10.74 13.2991C11.0138 13.2991 11.2542 13.2116 11.3977 13.1057C11.5413 12.9996 11.5702 12.9131 11.5702 12.8575C11.5702 12.8018 11.5413 12.7153 11.3977 12.6093C11.2542 12.5033 11.0138 12.4159 10.74 12.4159V12.4158ZM8.1523 20.0564C7.87849 20.0564 7.63818 20.1439 7.49463 20.2498C7.35109 20.3558 7.32213 20.4424 7.32213 20.498C7.32213 20.5536 7.35109 20.6402 7.49463 20.7462C7.63818 20.8521 7.87849 20.9396 8.1523 20.9396C8.42605 20.9396 8.66646 20.8521 8.81001 20.7462C8.95361 20.6402 8.98251 20.5536 8.98251 20.498C8.98251 20.4424 8.95361 20.3558 8.81001 20.2498C8.66646 20.1439 8.42605 20.0564 8.1523 20.0564Z" fill="white"/>
</svg>
